<mxfile host="app.diagrams.net" modified="2022-10-02T15:18:48.089Z" agent="5.0 (Windows NT 10.0; Win64; x64) AppleWebKit/537.36 (KHTML, like Gecko) Chrome/105.0.0.0 Safari/537.36" etag="ZOILs-HiiMxV4DxMrb0r" version="20.3.7" type="github">
  <diagram id="O5Nt3UZu3TyDV2IO9KQv" name="페이지-1">
    <mxGraphModel dx="1564" dy="942" grid="1" gridSize="10" guides="1" tooltips="1" connect="1" arrows="1" fold="1" page="1" pageScale="1" pageWidth="2000" pageHeight="4100" math="0" shadow="0">
      <root>
        <mxCell id="0" />
        <mxCell id="1" parent="0" />
        <mxCell id="-fTK9KnJdiPH2uhLEuWP-1" value="Journal" style="whiteSpace=wrap;html=1;align=center;" parent="1" vertex="1">
          <mxGeometry x="960" y="1480" width="100" height="40" as="geometry" />
        </mxCell>
        <mxCell id="-fTK9KnJdiPH2uhLEuWP-2" value="Auther" style="whiteSpace=wrap;html=1;align=center;" parent="1" vertex="1">
          <mxGeometry x="621" y="1480" width="100" height="40" as="geometry" />
        </mxCell>
        <mxCell id="-fTK9KnJdiPH2uhLEuWP-3" value="Academy" style="whiteSpace=wrap;html=1;align=center;" parent="1" vertex="1">
          <mxGeometry x="690" y="2100" width="100" height="40" as="geometry" />
        </mxCell>
        <mxCell id="-fTK9KnJdiPH2uhLEuWP-9" value="Volume" style="shape=ext;margin=3;double=1;whiteSpace=wrap;html=1;align=center;gradientColor=default;fillColor=none;" parent="1" vertex="1">
          <mxGeometry x="621" y="1781.95" width="100" height="40" as="geometry" />
        </mxCell>
        <mxCell id="-fTK9KnJdiPH2uhLEuWP-13" value="Judge" style="whiteSpace=wrap;html=1;align=center;" parent="1" vertex="1">
          <mxGeometry x="1310" y="1480" width="100" height="40" as="geometry" />
        </mxCell>
        <mxCell id="-fTK9KnJdiPH2uhLEuWP-16" value="Review" style="shape=ext;margin=3;double=1;whiteSpace=wrap;html=1;align=center;fillColor=none;gradientColor=default;" parent="1" vertex="1">
          <mxGeometry x="1310" y="1230" width="100" height="40" as="geometry" />
        </mxCell>
        <mxCell id="-fTK9KnJdiPH2uhLEuWP-17" value="Subscriber" style="whiteSpace=wrap;html=1;align=center;" parent="1" vertex="1">
          <mxGeometry x="820" y="1821.95" width="100" height="40" as="geometry" />
        </mxCell>
        <mxCell id="-fTK9KnJdiPH2uhLEuWP-18" value="Academy-worker" style="whiteSpace=wrap;html=1;align=center;" parent="1" vertex="1">
          <mxGeometry x="1250" y="1990" width="100" height="40" as="geometry" />
        </mxCell>
        <mxCell id="-fTK9KnJdiPH2uhLEuWP-21" value="ID" style="ellipse;whiteSpace=wrap;html=1;align=center;fontStyle=4;fillColor=none;gradientColor=default;" parent="1" vertex="1">
          <mxGeometry x="890" y="1340" width="100" height="40" as="geometry" />
        </mxCell>
        <mxCell id="-fTK9KnJdiPH2uhLEuWP-22" value="writes" style="shape=rhombus;perimeter=rhombusPerimeter;whiteSpace=wrap;html=1;align=center;fillColor=none;gradientColor=default;" parent="1" vertex="1">
          <mxGeometry x="790" y="1470" width="120" height="60" as="geometry" />
        </mxCell>
        <mxCell id="-fTK9KnJdiPH2uhLEuWP-24" value="includes" style="shape=rhombus;perimeter=rhombusPerimeter;whiteSpace=wrap;html=1;align=center;fillColor=none;gradientColor=default;" parent="1" vertex="1">
          <mxGeometry x="670" y="1620" width="120" height="60" as="geometry" />
        </mxCell>
        <mxCell id="-fTK9KnJdiPH2uhLEuWP-26" value="" style="endArrow=none;html=1;rounded=0;entryX=0.5;entryY=0;entryDx=0;entryDy=0;exitX=0.5;exitY=1;exitDx=0;exitDy=0;" parent="1" source="4AUw625GRqSKtKUmd0re-2" target="-fTK9KnJdiPH2uhLEuWP-3" edge="1">
          <mxGeometry relative="1" as="geometry">
            <mxPoint x="700" y="2030" as="sourcePoint" />
            <mxPoint x="1558" y="1460" as="targetPoint" />
          </mxGeometry>
        </mxCell>
        <mxCell id="-fTK9KnJdiPH2uhLEuWP-125" value="1" style="edgeLabel;html=1;align=center;verticalAlign=middle;resizable=0;points=[];" parent="-fTK9KnJdiPH2uhLEuWP-26" vertex="1" connectable="0">
          <mxGeometry x="-0.6284" y="-4" relative="1" as="geometry">
            <mxPoint as="offset" />
          </mxGeometry>
        </mxCell>
        <mxCell id="-fTK9KnJdiPH2uhLEuWP-30" value="Views" style="ellipse;whiteSpace=wrap;html=1;align=center;fillColor=none;gradientColor=default;" parent="1" vertex="1">
          <mxGeometry x="941" y="1303" width="100" height="40" as="geometry" />
        </mxCell>
        <mxCell id="-fTK9KnJdiPH2uhLEuWP-31" value="Citing articles" style="ellipse;whiteSpace=wrap;html=1;align=center;fillColor=none;gradientColor=default;" parent="1" vertex="1">
          <mxGeometry x="1094" y="1412.69" width="100" height="40" as="geometry" />
        </mxCell>
        <mxCell id="-fTK9KnJdiPH2uhLEuWP-32" value="Keyword" style="ellipse;whiteSpace=wrap;html=1;align=center;fillColor=none;gradientColor=default;" parent="1" vertex="1">
          <mxGeometry x="820" y="1420" width="100" height="40" as="geometry" />
        </mxCell>
        <mxCell id="-fTK9KnJdiPH2uhLEuWP-33" value="Publication&lt;br&gt;date" style="ellipse;whiteSpace=wrap;html=1;align=center;fillColor=none;gradientColor=default;" parent="1" vertex="1">
          <mxGeometry x="1006" y="1336" width="100" height="40" as="geometry" />
        </mxCell>
        <mxCell id="-fTK9KnJdiPH2uhLEuWP-35" value="Citated by(num)" style="ellipse;whiteSpace=wrap;html=1;align=center;fillColor=none;gradientColor=default;" parent="1" vertex="1">
          <mxGeometry x="1060" y="1373" width="100" height="40" as="geometry" />
        </mxCell>
        <mxCell id="-fTK9KnJdiPH2uhLEuWP-40" value="N" style="endArrow=none;html=1;rounded=0;exitX=0;exitY=0.5;exitDx=0;exitDy=0;entryX=1;entryY=0.5;entryDx=0;entryDy=0;" parent="1" source="-fTK9KnJdiPH2uhLEuWP-22" target="-fTK9KnJdiPH2uhLEuWP-2" edge="1">
          <mxGeometry relative="1" as="geometry">
            <mxPoint x="1160" y="870" as="sourcePoint" />
            <mxPoint x="1320" y="870" as="targetPoint" />
          </mxGeometry>
        </mxCell>
        <mxCell id="-fTK9KnJdiPH2uhLEuWP-41" value="&lt;u&gt;Subscriber ID&lt;/u&gt;" style="ellipse;whiteSpace=wrap;html=1;align=center;fillColor=none;gradientColor=default;" parent="1" vertex="1">
          <mxGeometry x="710" y="1821.95" width="100" height="40" as="geometry" />
        </mxCell>
        <mxCell id="-fTK9KnJdiPH2uhLEuWP-43" value="Type" style="ellipse;whiteSpace=wrap;html=1;align=center;fillColor=none;gradientColor=default;" parent="1" vertex="1">
          <mxGeometry x="930" y="1825.95" width="100" height="40" as="geometry" />
        </mxCell>
        <mxCell id="-fTK9KnJdiPH2uhLEuWP-47" value="pays" style="shape=rhombus;perimeter=rhombusPerimeter;whiteSpace=wrap;html=1;align=center;fillColor=none;gradientColor=default;" parent="1" vertex="1">
          <mxGeometry x="790" y="1970" width="120" height="60" as="geometry" />
        </mxCell>
        <mxCell id="-fTK9KnJdiPH2uhLEuWP-49" value="" style="endArrow=none;html=1;rounded=0;exitX=0.5;exitY=0;exitDx=0;exitDy=0;entryX=0.5;entryY=1;entryDx=0;entryDy=0;" parent="1" source="-fTK9KnJdiPH2uhLEuWP-47" target="-fTK9KnJdiPH2uhLEuWP-17" edge="1">
          <mxGeometry relative="1" as="geometry">
            <mxPoint x="1231" y="2074.81" as="sourcePoint" />
            <mxPoint x="1911" y="1434.81" as="targetPoint" />
          </mxGeometry>
        </mxCell>
        <mxCell id="-fTK9KnJdiPH2uhLEuWP-118" value="M" style="edgeLabel;html=1;align=center;verticalAlign=middle;resizable=0;points=[];" parent="-fTK9KnJdiPH2uhLEuWP-49" vertex="1" connectable="0">
          <mxGeometry x="-0.477" y="-1" relative="1" as="geometry">
            <mxPoint as="offset" />
          </mxGeometry>
        </mxCell>
        <mxCell id="-fTK9KnJdiPH2uhLEuWP-50" value="hire" style="shape=rhombus;perimeter=rhombusPerimeter;whiteSpace=wrap;html=1;align=center;fillColor=none;gradientColor=default;" parent="1" vertex="1">
          <mxGeometry x="1006" y="2070" width="120" height="60" as="geometry" />
        </mxCell>
        <mxCell id="-fTK9KnJdiPH2uhLEuWP-51" value="" style="endArrow=none;html=1;rounded=0;exitX=1;exitY=0.5;exitDx=0;exitDy=0;entryX=0;entryY=0.5;entryDx=0;entryDy=0;" parent="1" source="-fTK9KnJdiPH2uhLEuWP-3" target="-fTK9KnJdiPH2uhLEuWP-50" edge="1">
          <mxGeometry relative="1" as="geometry">
            <mxPoint x="1508" y="1420" as="sourcePoint" />
            <mxPoint x="1668" y="1420" as="targetPoint" />
          </mxGeometry>
        </mxCell>
        <mxCell id="-fTK9KnJdiPH2uhLEuWP-121" value="1" style="edgeLabel;html=1;align=center;verticalAlign=middle;resizable=0;points=[];" parent="-fTK9KnJdiPH2uhLEuWP-51" vertex="1" connectable="0">
          <mxGeometry x="0.3978" y="3" relative="1" as="geometry">
            <mxPoint as="offset" />
          </mxGeometry>
        </mxCell>
        <mxCell id="-fTK9KnJdiPH2uhLEuWP-53" value="proposes" style="shape=rhombus;perimeter=rhombusPerimeter;whiteSpace=wrap;html=1;align=center;fillColor=none;gradientColor=default;" parent="1" vertex="1">
          <mxGeometry x="1230" y="1610" width="120" height="60" as="geometry" />
        </mxCell>
        <mxCell id="-fTK9KnJdiPH2uhLEuWP-54" value="" style="endArrow=none;html=1;rounded=0;exitX=0.5;exitY=0;exitDx=0;exitDy=0;entryX=0.5;entryY=1;entryDx=0;entryDy=0;" parent="1" source="-fTK9KnJdiPH2uhLEuWP-18" target="-fTK9KnJdiPH2uhLEuWP-53" edge="1">
          <mxGeometry relative="1" as="geometry">
            <mxPoint x="1510" y="1540" as="sourcePoint" />
            <mxPoint x="1670" y="1540" as="targetPoint" />
          </mxGeometry>
        </mxCell>
        <mxCell id="-fTK9KnJdiPH2uhLEuWP-129" value="N" style="edgeLabel;html=1;align=center;verticalAlign=middle;resizable=0;points=[];" parent="-fTK9KnJdiPH2uhLEuWP-54" vertex="1" connectable="0">
          <mxGeometry x="0.5206" y="1" relative="1" as="geometry">
            <mxPoint as="offset" />
          </mxGeometry>
        </mxCell>
        <mxCell id="-fTK9KnJdiPH2uhLEuWP-55" value="" style="endArrow=none;html=1;rounded=0;exitX=0.5;exitY=0;exitDx=0;exitDy=0;entryX=0.5;entryY=1;entryDx=0;entryDy=0;" parent="1" source="-fTK9KnJdiPH2uhLEuWP-53" target="-fTK9KnJdiPH2uhLEuWP-13" edge="1">
          <mxGeometry relative="1" as="geometry">
            <mxPoint x="520" y="950" as="sourcePoint" />
            <mxPoint x="680" y="950" as="targetPoint" />
          </mxGeometry>
        </mxCell>
        <mxCell id="0sQT9fyUg3EOoXURnySZ-10" value="M" style="edgeLabel;html=1;align=center;verticalAlign=middle;resizable=0;points=[];" parent="-fTK9KnJdiPH2uhLEuWP-55" vertex="1" connectable="0">
          <mxGeometry x="0.15" y="1" relative="1" as="geometry">
            <mxPoint as="offset" />
          </mxGeometry>
        </mxCell>
        <mxCell id="-fTK9KnJdiPH2uhLEuWP-57" value="accepts" style="shape=rhombus;perimeter=rhombusPerimeter;whiteSpace=wrap;html=1;align=center;fillColor=none;gradientColor=default;" parent="1" vertex="1">
          <mxGeometry x="1370" y="1610" width="120" height="60" as="geometry" />
        </mxCell>
        <mxCell id="-fTK9KnJdiPH2uhLEuWP-58" value="" style="endArrow=none;html=1;rounded=0;exitX=0.5;exitY=0;exitDx=0;exitDy=0;entryX=0.5;entryY=1;entryDx=0;entryDy=0;" parent="1" source="-fTK9KnJdiPH2uhLEuWP-57" target="-fTK9KnJdiPH2uhLEuWP-13" edge="1">
          <mxGeometry relative="1" as="geometry">
            <mxPoint x="1260.0000000000005" y="1535" as="sourcePoint" />
            <mxPoint x="1470" y="1510" as="targetPoint" />
          </mxGeometry>
        </mxCell>
        <mxCell id="0sQT9fyUg3EOoXURnySZ-9" value="M" style="edgeLabel;html=1;align=center;verticalAlign=middle;resizable=0;points=[];" parent="-fTK9KnJdiPH2uhLEuWP-58" vertex="1" connectable="0">
          <mxGeometry x="0.1509" relative="1" as="geometry">
            <mxPoint as="offset" />
          </mxGeometry>
        </mxCell>
        <mxCell id="-fTK9KnJdiPH2uhLEuWP-59" value="" style="endArrow=none;html=1;rounded=0;entryX=0.5;entryY=1;entryDx=0;entryDy=0;exitX=0.5;exitY=0;exitDx=0;exitDy=0;" parent="1" source="-fTK9KnJdiPH2uhLEuWP-18" target="-fTK9KnJdiPH2uhLEuWP-57" edge="1">
          <mxGeometry relative="1" as="geometry">
            <mxPoint x="1510" y="1540" as="sourcePoint" />
            <mxPoint x="1670" y="1540" as="targetPoint" />
          </mxGeometry>
        </mxCell>
        <mxCell id="-fTK9KnJdiPH2uhLEuWP-132" value="N" style="edgeLabel;html=1;align=center;verticalAlign=middle;resizable=0;points=[];" parent="-fTK9KnJdiPH2uhLEuWP-59" vertex="1" connectable="0">
          <mxGeometry x="-0.4274" y="-1" relative="1" as="geometry">
            <mxPoint x="60" y="-147" as="offset" />
          </mxGeometry>
        </mxCell>
        <mxCell id="-fTK9KnJdiPH2uhLEuWP-61" value="" style="endArrow=none;html=1;rounded=0;exitX=0.5;exitY=0;exitDx=0;exitDy=0;entryX=0.5;entryY=1;entryDx=0;entryDy=0;" parent="1" source="-fTK9KnJdiPH2uhLEuWP-13" target="4AUw625GRqSKtKUmd0re-8" edge="1">
          <mxGeometry relative="1" as="geometry">
            <mxPoint x="1190" y="950" as="sourcePoint" />
            <mxPoint x="1360.0000000000002" y="1407.69" as="targetPoint" />
          </mxGeometry>
        </mxCell>
        <mxCell id="-fTK9KnJdiPH2uhLEuWP-133" value="1" style="edgeLabel;html=1;align=center;verticalAlign=middle;resizable=0;points=[];" parent="-fTK9KnJdiPH2uhLEuWP-61" vertex="1" connectable="0">
          <mxGeometry x="-0.3702" y="-3" relative="1" as="geometry">
            <mxPoint as="offset" />
          </mxGeometry>
        </mxCell>
        <mxCell id="-fTK9KnJdiPH2uhLEuWP-64" value="" style="endArrow=none;html=1;rounded=0;exitX=1;exitY=0.5;exitDx=0;exitDy=0;entryX=0.5;entryY=1;entryDx=0;entryDy=0;" parent="1" source="-fTK9KnJdiPH2uhLEuWP-1" target="4AUw625GRqSKtKUmd0re-6" edge="1">
          <mxGeometry relative="1" as="geometry">
            <mxPoint x="1050" y="950" as="sourcePoint" />
            <mxPoint x="1231" y="1440" as="targetPoint" />
          </mxGeometry>
        </mxCell>
        <mxCell id="0sQT9fyUg3EOoXURnySZ-12" value="1" style="edgeLabel;html=1;align=center;verticalAlign=middle;resizable=0;points=[];" parent="-fTK9KnJdiPH2uhLEuWP-64" vertex="1" connectable="0">
          <mxGeometry x="-0.4654" relative="1" as="geometry">
            <mxPoint as="offset" />
          </mxGeometry>
        </mxCell>
        <mxCell id="-fTK9KnJdiPH2uhLEuWP-66" value="Name" style="ellipse;whiteSpace=wrap;html=1;align=center;fillColor=none;gradientColor=default;" parent="1" vertex="1">
          <mxGeometry x="550" y="1370" width="100" height="40" as="geometry" />
        </mxCell>
        <mxCell id="-fTK9KnJdiPH2uhLEuWP-67" value="Unique Author&lt;br&gt;ID" style="ellipse;whiteSpace=wrap;html=1;align=center;fontStyle=4;fillColor=none;gradientColor=default;" parent="1" vertex="1">
          <mxGeometry x="450" y="1370" width="100" height="40" as="geometry" />
        </mxCell>
        <mxCell id="-fTK9KnJdiPH2uhLEuWP-68" value="First name" style="ellipse;whiteSpace=wrap;html=1;align=center;fillColor=none;gradientColor=default;" parent="1" vertex="1">
          <mxGeometry x="510" y="1420" width="100" height="40" as="geometry" />
        </mxCell>
        <mxCell id="-fTK9KnJdiPH2uhLEuWP-70" value="Last name" style="ellipse;whiteSpace=wrap;html=1;align=center;fillColor=none;gradientColor=default;" parent="1" vertex="1">
          <mxGeometry x="610" y="1420" width="100" height="40" as="geometry" />
        </mxCell>
        <mxCell id="-fTK9KnJdiPH2uhLEuWP-71" value="" style="endArrow=none;html=1;rounded=0;entryX=0.5;entryY=1;entryDx=0;entryDy=0;exitX=0.5;exitY=0;exitDx=0;exitDy=0;" parent="1" source="-fTK9KnJdiPH2uhLEuWP-68" target="-fTK9KnJdiPH2uhLEuWP-66" edge="1">
          <mxGeometry relative="1" as="geometry">
            <mxPoint x="140" y="1280" as="sourcePoint" />
            <mxPoint x="300" y="1280" as="targetPoint" />
          </mxGeometry>
        </mxCell>
        <mxCell id="-fTK9KnJdiPH2uhLEuWP-72" value="" style="endArrow=none;html=1;rounded=0;entryX=0.5;entryY=0;entryDx=0;entryDy=0;exitX=0.5;exitY=1;exitDx=0;exitDy=0;" parent="1" source="-fTK9KnJdiPH2uhLEuWP-66" target="-fTK9KnJdiPH2uhLEuWP-70" edge="1">
          <mxGeometry relative="1" as="geometry">
            <mxPoint x="600" y="1410" as="sourcePoint" />
            <mxPoint x="300" y="1280" as="targetPoint" />
          </mxGeometry>
        </mxCell>
        <mxCell id="-fTK9KnJdiPH2uhLEuWP-73" value="Degree" style="ellipse;whiteSpace=wrap;html=1;align=center;fillColor=none;gradientColor=default;" parent="1" vertex="1">
          <mxGeometry x="650" y="1370" width="100" height="40" as="geometry" />
        </mxCell>
        <mxCell id="-fTK9KnJdiPH2uhLEuWP-75" value="Validation due" style="ellipse;whiteSpace=wrap;html=1;align=center;fillColor=none;gradientColor=default;" parent="1" vertex="1">
          <mxGeometry x="760" y="1865.95" width="100" height="40" as="geometry" />
        </mxCell>
        <mxCell id="-fTK9KnJdiPH2uhLEuWP-76" value="Starting date" style="ellipse;whiteSpace=wrap;html=1;align=center;fillColor=none;gradientColor=default;" parent="1" vertex="1">
          <mxGeometry x="880" y="1865.95" width="100" height="40" as="geometry" />
        </mxCell>
        <mxCell id="-fTK9KnJdiPH2uhLEuWP-78" value="Unique judge&lt;br&gt;ID" style="ellipse;whiteSpace=wrap;html=1;align=center;fontStyle=4;fillColor=none;gradientColor=default;" parent="1" vertex="1">
          <mxGeometry x="1420" y="1480" width="100" height="40" as="geometry" />
        </mxCell>
        <mxCell id="-fTK9KnJdiPH2uhLEuWP-79" value="Name" style="ellipse;whiteSpace=wrap;html=1;align=center;fillColor=none;gradientColor=default;" parent="1" vertex="1">
          <mxGeometry x="550" y="1370" width="100" height="40" as="geometry" />
        </mxCell>
        <mxCell id="-fTK9KnJdiPH2uhLEuWP-80" value="" style="endArrow=none;html=1;rounded=0;entryX=0.5;entryY=1;entryDx=0;entryDy=0;exitX=0.5;exitY=0;exitDx=0;exitDy=0;" parent="1" source="-fTK9KnJdiPH2uhLEuWP-82" target="-fTK9KnJdiPH2uhLEuWP-79" edge="1">
          <mxGeometry relative="1" as="geometry">
            <mxPoint x="140" y="1280" as="sourcePoint" />
            <mxPoint x="300" y="1280" as="targetPoint" />
          </mxGeometry>
        </mxCell>
        <mxCell id="-fTK9KnJdiPH2uhLEuWP-81" value="" style="endArrow=none;html=1;rounded=0;entryX=0.5;entryY=0;entryDx=0;entryDy=0;exitX=0.5;exitY=1;exitDx=0;exitDy=0;" parent="1" source="-fTK9KnJdiPH2uhLEuWP-79" edge="1">
          <mxGeometry relative="1" as="geometry">
            <mxPoint x="600" y="1410" as="sourcePoint" />
            <mxPoint x="660" y="1420" as="targetPoint" />
          </mxGeometry>
        </mxCell>
        <mxCell id="-fTK9KnJdiPH2uhLEuWP-82" value="First name" style="ellipse;whiteSpace=wrap;html=1;align=center;fillColor=none;gradientColor=default;" parent="1" vertex="1">
          <mxGeometry x="510" y="1420" width="100" height="40" as="geometry" />
        </mxCell>
        <mxCell id="-fTK9KnJdiPH2uhLEuWP-83" value="Last name" style="ellipse;whiteSpace=wrap;html=1;align=center;fillColor=none;gradientColor=default;" parent="1" vertex="1">
          <mxGeometry x="1580" y="1520" width="100" height="40" as="geometry" />
        </mxCell>
        <mxCell id="-fTK9KnJdiPH2uhLEuWP-84" value="Name" style="ellipse;whiteSpace=wrap;html=1;align=center;fillColor=none;gradientColor=default;" parent="1" vertex="1">
          <mxGeometry x="1520" y="1470" width="100" height="40" as="geometry" />
        </mxCell>
        <mxCell id="-fTK9KnJdiPH2uhLEuWP-85" value="" style="endArrow=none;html=1;rounded=0;entryX=0.5;entryY=1;entryDx=0;entryDy=0;exitX=0.5;exitY=0;exitDx=0;exitDy=0;" parent="1" source="-fTK9KnJdiPH2uhLEuWP-87" target="-fTK9KnJdiPH2uhLEuWP-84" edge="1">
          <mxGeometry relative="1" as="geometry">
            <mxPoint x="1110" y="1380" as="sourcePoint" />
            <mxPoint x="1270" y="1380" as="targetPoint" />
          </mxGeometry>
        </mxCell>
        <mxCell id="-fTK9KnJdiPH2uhLEuWP-86" value="" style="endArrow=none;html=1;rounded=0;entryX=0.5;entryY=0;entryDx=0;entryDy=0;exitX=0.5;exitY=1;exitDx=0;exitDy=0;" parent="1" source="-fTK9KnJdiPH2uhLEuWP-84" edge="1">
          <mxGeometry relative="1" as="geometry">
            <mxPoint x="1570" y="1510" as="sourcePoint" />
            <mxPoint x="1630" y="1520" as="targetPoint" />
          </mxGeometry>
        </mxCell>
        <mxCell id="-fTK9KnJdiPH2uhLEuWP-87" value="First name" style="ellipse;whiteSpace=wrap;html=1;align=center;fillColor=none;gradientColor=default;" parent="1" vertex="1">
          <mxGeometry x="1480" y="1520" width="100" height="40" as="geometry" />
        </mxCell>
        <mxCell id="-fTK9KnJdiPH2uhLEuWP-88" value="Degree" style="ellipse;whiteSpace=wrap;html=1;align=center;fillColor=none;gradientColor=default;" parent="1" vertex="1">
          <mxGeometry x="1620" y="1470" width="100" height="40" as="geometry" />
        </mxCell>
        <mxCell id="-fTK9KnJdiPH2uhLEuWP-89" value="Date" style="ellipse;whiteSpace=wrap;html=1;align=center;fillColor=none;gradientColor=default;" parent="1" vertex="1">
          <mxGeometry x="1380" y="1170" width="100" height="40" as="geometry" />
        </mxCell>
        <mxCell id="-fTK9KnJdiPH2uhLEuWP-92" value="&lt;span style=&quot;border-bottom: 1px dotted&quot;&gt;Review ID&lt;/span&gt;" style="ellipse;whiteSpace=wrap;html=1;align=center;fillColor=none;gradientColor=default;" parent="1" vertex="1">
          <mxGeometry x="1265" y="1170" width="100" height="40" as="geometry" />
        </mxCell>
        <mxCell id="-fTK9KnJdiPH2uhLEuWP-94" value="Date" style="ellipse;whiteSpace=wrap;html=1;align=center;fillColor=none;gradientColor=default;" parent="1" vertex="1">
          <mxGeometry x="511" y="1831.95" width="100" height="40" as="geometry" />
        </mxCell>
        <mxCell id="-fTK9KnJdiPH2uhLEuWP-95" value="Title" style="ellipse;whiteSpace=wrap;html=1;align=center;fillColor=none;gradientColor=default;" parent="1" vertex="1">
          <mxGeometry x="510" y="1781.95" width="100" height="40" as="geometry" />
        </mxCell>
        <mxCell id="-fTK9KnJdiPH2uhLEuWP-96" value="&lt;span style=&quot;border-bottom: 1px dotted&quot;&gt;Volume ID&lt;/span&gt;" style="ellipse;whiteSpace=wrap;html=1;align=center;fillColor=none;gradientColor=default;" parent="1" vertex="1">
          <mxGeometry x="530" y="1741.95" width="100" height="40" as="geometry" />
        </mxCell>
        <mxCell id="-fTK9KnJdiPH2uhLEuWP-97" value="Unique worker&lt;br&gt;ID" style="ellipse;whiteSpace=wrap;html=1;align=center;fontStyle=4;fillColor=none;gradientColor=default;" parent="1" vertex="1">
          <mxGeometry x="1330" y="1955" width="100" height="40" as="geometry" />
        </mxCell>
        <mxCell id="-fTK9KnJdiPH2uhLEuWP-99" value="Last name" style="ellipse;whiteSpace=wrap;html=1;align=center;fillColor=none;gradientColor=default;" parent="1" vertex="1">
          <mxGeometry x="1490" y="2005" width="100" height="40" as="geometry" />
        </mxCell>
        <mxCell id="-fTK9KnJdiPH2uhLEuWP-100" value="Name" style="ellipse;whiteSpace=wrap;html=1;align=center;fillColor=none;gradientColor=default;" parent="1" vertex="1">
          <mxGeometry x="1430" y="1955" width="100" height="40" as="geometry" />
        </mxCell>
        <mxCell id="-fTK9KnJdiPH2uhLEuWP-101" value="" style="endArrow=none;html=1;rounded=0;entryX=0.5;entryY=1;entryDx=0;entryDy=0;exitX=0.5;exitY=0;exitDx=0;exitDy=0;" parent="1" source="-fTK9KnJdiPH2uhLEuWP-103" target="-fTK9KnJdiPH2uhLEuWP-100" edge="1">
          <mxGeometry relative="1" as="geometry">
            <mxPoint x="1020" y="1865" as="sourcePoint" />
            <mxPoint x="1180" y="1865" as="targetPoint" />
          </mxGeometry>
        </mxCell>
        <mxCell id="-fTK9KnJdiPH2uhLEuWP-102" value="" style="endArrow=none;html=1;rounded=0;entryX=0.5;entryY=0;entryDx=0;entryDy=0;exitX=0.5;exitY=1;exitDx=0;exitDy=0;" parent="1" source="-fTK9KnJdiPH2uhLEuWP-100" edge="1">
          <mxGeometry relative="1" as="geometry">
            <mxPoint x="1480" y="1995" as="sourcePoint" />
            <mxPoint x="1540" y="2005" as="targetPoint" />
          </mxGeometry>
        </mxCell>
        <mxCell id="-fTK9KnJdiPH2uhLEuWP-103" value="First name" style="ellipse;whiteSpace=wrap;html=1;align=center;fillColor=none;gradientColor=default;" parent="1" vertex="1">
          <mxGeometry x="1390" y="2005" width="100" height="40" as="geometry" />
        </mxCell>
        <mxCell id="-fTK9KnJdiPH2uhLEuWP-105" value="Position" style="ellipse;whiteSpace=wrap;html=1;align=center;fillColor=none;gradientColor=default;" parent="1" vertex="1">
          <mxGeometry x="1530" y="1955" width="100" height="40" as="geometry" />
        </mxCell>
        <mxCell id="-fTK9KnJdiPH2uhLEuWP-109" value="Accessible" style="ellipse;whiteSpace=wrap;html=1;align=center;fillColor=none;gradientColor=default;" parent="1" vertex="1">
          <mxGeometry x="850" y="1380" width="100" height="40" as="geometry" />
        </mxCell>
        <mxCell id="-fTK9KnJdiPH2uhLEuWP-110" value="Name" style="ellipse;whiteSpace=wrap;html=1;align=center;fontStyle=4;fillColor=none;gradientColor=default;" parent="1" vertex="1">
          <mxGeometry x="631" y="2140" width="100" height="40" as="geometry" />
        </mxCell>
        <mxCell id="-fTK9KnJdiPH2uhLEuWP-111" value="&lt;u&gt;Unique academy&lt;br&gt;ID&lt;/u&gt;" style="ellipse;whiteSpace=wrap;html=1;align=center;fillColor=none;gradientColor=default;" parent="1" vertex="1">
          <mxGeometry x="731" y="2150" width="100" height="40" as="geometry" />
        </mxCell>
        <mxCell id="0sQT9fyUg3EOoXURnySZ-13" value="" style="endArrow=none;html=1;rounded=0;exitX=0.5;exitY=0;exitDx=0;exitDy=0;entryX=0.5;entryY=1;entryDx=0;entryDy=0;" parent="1" source="-fTK9KnJdiPH2uhLEuWP-1" target="-fTK9KnJdiPH2uhLEuWP-33" edge="1">
          <mxGeometry width="50" height="50" relative="1" as="geometry">
            <mxPoint x="990" y="1480" as="sourcePoint" />
            <mxPoint x="1040" y="1430" as="targetPoint" />
          </mxGeometry>
        </mxCell>
        <mxCell id="0sQT9fyUg3EOoXURnySZ-14" value="" style="endArrow=none;html=1;rounded=0;entryX=0.5;entryY=1;entryDx=0;entryDy=0;exitX=0.5;exitY=0;exitDx=0;exitDy=0;" parent="1" source="-fTK9KnJdiPH2uhLEuWP-1" target="-fTK9KnJdiPH2uhLEuWP-32" edge="1">
          <mxGeometry width="50" height="50" relative="1" as="geometry">
            <mxPoint x="1010" y="1480" as="sourcePoint" />
            <mxPoint x="1070" y="1457.69" as="targetPoint" />
          </mxGeometry>
        </mxCell>
        <mxCell id="0sQT9fyUg3EOoXURnySZ-15" value="" style="endArrow=none;html=1;rounded=0;exitX=0.5;exitY=0;exitDx=0;exitDy=0;entryX=0.5;entryY=1;entryDx=0;entryDy=0;" parent="1" source="-fTK9KnJdiPH2uhLEuWP-1" target="-fTK9KnJdiPH2uhLEuWP-30" edge="1">
          <mxGeometry width="50" height="50" relative="1" as="geometry">
            <mxPoint x="1030" y="1500" as="sourcePoint" />
            <mxPoint x="1080" y="1467.69" as="targetPoint" />
          </mxGeometry>
        </mxCell>
        <mxCell id="0sQT9fyUg3EOoXURnySZ-16" value="" style="endArrow=none;html=1;rounded=0;exitX=0.5;exitY=0;exitDx=0;exitDy=0;entryX=0.5;entryY=1;entryDx=0;entryDy=0;" parent="1" source="-fTK9KnJdiPH2uhLEuWP-1" target="-fTK9KnJdiPH2uhLEuWP-35" edge="1">
          <mxGeometry width="50" height="50" relative="1" as="geometry">
            <mxPoint x="1040" y="1510" as="sourcePoint" />
            <mxPoint x="1090" y="1477.69" as="targetPoint" />
          </mxGeometry>
        </mxCell>
        <mxCell id="0sQT9fyUg3EOoXURnySZ-17" value="" style="endArrow=none;html=1;rounded=0;exitX=0.5;exitY=0;exitDx=0;exitDy=0;entryX=0.5;entryY=1;entryDx=0;entryDy=0;" parent="1" source="-fTK9KnJdiPH2uhLEuWP-1" target="-fTK9KnJdiPH2uhLEuWP-109" edge="1">
          <mxGeometry width="50" height="50" relative="1" as="geometry">
            <mxPoint x="1050" y="1520" as="sourcePoint" />
            <mxPoint x="1100" y="1487.69" as="targetPoint" />
          </mxGeometry>
        </mxCell>
        <mxCell id="0sQT9fyUg3EOoXURnySZ-18" value="" style="endArrow=none;html=1;rounded=0;exitX=0.5;exitY=0;exitDx=0;exitDy=0;entryX=0.5;entryY=1;entryDx=0;entryDy=0;" parent="1" source="-fTK9KnJdiPH2uhLEuWP-1" target="-fTK9KnJdiPH2uhLEuWP-21" edge="1">
          <mxGeometry width="50" height="50" relative="1" as="geometry">
            <mxPoint x="1060" y="1530" as="sourcePoint" />
            <mxPoint x="1110" y="1497.69" as="targetPoint" />
          </mxGeometry>
        </mxCell>
        <mxCell id="0sQT9fyUg3EOoXURnySZ-19" value="" style="endArrow=none;html=1;rounded=0;exitX=0.5;exitY=0;exitDx=0;exitDy=0;entryX=0.534;entryY=1.002;entryDx=0;entryDy=0;entryPerimeter=0;" parent="1" source="-fTK9KnJdiPH2uhLEuWP-1" target="-fTK9KnJdiPH2uhLEuWP-31" edge="1">
          <mxGeometry width="50" height="50" relative="1" as="geometry">
            <mxPoint x="1070" y="1540" as="sourcePoint" />
            <mxPoint x="1120" y="1507.69" as="targetPoint" />
          </mxGeometry>
        </mxCell>
        <mxCell id="0sQT9fyUg3EOoXURnySZ-20" value="Text" style="ellipse;whiteSpace=wrap;html=1;align=center;fillColor=none;gradientColor=default;" parent="1" vertex="1">
          <mxGeometry x="1440" y="1220" width="100" height="40" as="geometry" />
        </mxCell>
        <mxCell id="0sQT9fyUg3EOoXURnySZ-23" value="" style="shape=link;html=1;rounded=0;exitX=0.5;exitY=0;exitDx=0;exitDy=0;entryX=0.5;entryY=1;entryDx=0;entryDy=0;" parent="1" source="4AUw625GRqSKtKUmd0re-6" target="-fTK9KnJdiPH2uhLEuWP-16" edge="1">
          <mxGeometry relative="1" as="geometry">
            <mxPoint x="1231" y="1380" as="sourcePoint" />
            <mxPoint x="1230" y="1530" as="targetPoint" />
          </mxGeometry>
        </mxCell>
        <mxCell id="0sQT9fyUg3EOoXURnySZ-25" value="N" style="edgeLabel;html=1;align=center;verticalAlign=middle;resizable=0;points=[];" parent="0sQT9fyUg3EOoXURnySZ-23" vertex="1" connectable="0">
          <mxGeometry x="0.6842" y="3" relative="1" as="geometry">
            <mxPoint as="offset" />
          </mxGeometry>
        </mxCell>
        <mxCell id="0sQT9fyUg3EOoXURnySZ-26" value="provides" style="shape=rhombus;double=1;perimeter=rhombusPerimeter;whiteSpace=wrap;html=1;align=center;" parent="1" vertex="1">
          <mxGeometry x="830" y="1721.95" width="120" height="60" as="geometry" />
        </mxCell>
        <mxCell id="0sQT9fyUg3EOoXURnySZ-28" value="Evalutes" style="shape=rhombus;double=1;perimeter=rhombusPerimeter;whiteSpace=wrap;html=1;align=center;" parent="1" vertex="1">
          <mxGeometry x="931" y="1560" width="120" height="60" as="geometry" />
        </mxCell>
        <mxCell id="0sQT9fyUg3EOoXURnySZ-29" value="" style="endArrow=none;html=1;rounded=0;exitX=0.5;exitY=0;exitDx=0;exitDy=0;entryX=0.5;entryY=1;entryDx=0;entryDy=0;" parent="1" source="-fTK9KnJdiPH2uhLEuWP-17" target="0sQT9fyUg3EOoXURnySZ-26" edge="1">
          <mxGeometry relative="1" as="geometry">
            <mxPoint x="940" y="1855.97" as="sourcePoint" />
            <mxPoint x="960" y="1747.9199999999998" as="targetPoint" />
          </mxGeometry>
        </mxCell>
        <mxCell id="0sQT9fyUg3EOoXURnySZ-30" value="1" style="edgeLabel;html=1;align=center;verticalAlign=middle;resizable=0;points=[];" parent="0sQT9fyUg3EOoXURnySZ-29" vertex="1" connectable="0">
          <mxGeometry x="-0.477" y="-1" relative="1" as="geometry">
            <mxPoint x="1" y="-6" as="offset" />
          </mxGeometry>
        </mxCell>
        <mxCell id="0sQT9fyUg3EOoXURnySZ-31" value="" style="shape=link;html=1;rounded=0;exitX=0.5;exitY=0;exitDx=0;exitDy=0;entryX=0.5;entryY=1;entryDx=0;entryDy=0;" parent="1" source="0sQT9fyUg3EOoXURnySZ-26" target="4AUw625GRqSKtKUmd0re-1" edge="1">
          <mxGeometry relative="1" as="geometry">
            <mxPoint x="910" y="1790" as="sourcePoint" />
            <mxPoint x="966" y="1700" as="targetPoint" />
          </mxGeometry>
        </mxCell>
        <mxCell id="0sQT9fyUg3EOoXURnySZ-33" value="M" style="edgeLabel;html=1;align=center;verticalAlign=middle;resizable=0;points=[];" parent="0sQT9fyUg3EOoXURnySZ-31" vertex="1" connectable="0">
          <mxGeometry x="0.4537" y="2" relative="1" as="geometry">
            <mxPoint as="offset" />
          </mxGeometry>
        </mxCell>
        <mxCell id="0sQT9fyUg3EOoXURnySZ-34" value="" style="shape=link;html=1;rounded=0;exitX=0.5;exitY=0;exitDx=0;exitDy=0;entryX=0.5;entryY=1;entryDx=0;entryDy=0;" parent="1" source="4AUw625GRqSKtKUmd0re-1" target="0sQT9fyUg3EOoXURnySZ-28" edge="1">
          <mxGeometry relative="1" as="geometry">
            <mxPoint x="966" y="1660" as="sourcePoint" />
            <mxPoint x="920" y="1700" as="targetPoint" />
          </mxGeometry>
        </mxCell>
        <mxCell id="0sQT9fyUg3EOoXURnySZ-35" value="M" style="edgeLabel;html=1;align=center;verticalAlign=middle;resizable=0;points=[];" parent="0sQT9fyUg3EOoXURnySZ-34" vertex="1" connectable="0">
          <mxGeometry x="0.4537" y="2" relative="1" as="geometry">
            <mxPoint as="offset" />
          </mxGeometry>
        </mxCell>
        <mxCell id="0sQT9fyUg3EOoXURnySZ-36" value="" style="endArrow=none;html=1;rounded=0;exitX=0.5;exitY=0;exitDx=0;exitDy=0;entryX=0.5;entryY=1;entryDx=0;entryDy=0;" parent="1" source="0sQT9fyUg3EOoXURnySZ-28" target="-fTK9KnJdiPH2uhLEuWP-1" edge="1">
          <mxGeometry relative="1" as="geometry">
            <mxPoint x="846" y="1610" as="sourcePoint" />
            <mxPoint x="1136" y="1520" as="targetPoint" />
          </mxGeometry>
        </mxCell>
        <mxCell id="0sQT9fyUg3EOoXURnySZ-37" value="1" style="edgeLabel;html=1;align=center;verticalAlign=middle;resizable=0;points=[];" parent="0sQT9fyUg3EOoXURnySZ-36" vertex="1" connectable="0">
          <mxGeometry x="-0.6468" y="-4" relative="1" as="geometry">
            <mxPoint x="-3" y="-8" as="offset" />
          </mxGeometry>
        </mxCell>
        <mxCell id="0sQT9fyUg3EOoXURnySZ-39" value="Star" style="ellipse;whiteSpace=wrap;html=1;align=center;fillColor=none;gradientColor=default;" parent="1" vertex="1">
          <mxGeometry x="1006" y="1620" width="100" height="40" as="geometry" />
        </mxCell>
        <mxCell id="0sQT9fyUg3EOoXURnySZ-40" value="Written by" style="ellipse;whiteSpace=wrap;html=1;align=center;fillColor=none;gradientColor=default;" parent="1" vertex="1">
          <mxGeometry x="1016" y="1660" width="100" height="40" as="geometry" />
        </mxCell>
        <mxCell id="0sQT9fyUg3EOoXURnySZ-41" value="Written date" style="ellipse;whiteSpace=wrap;html=1;align=center;fillColor=none;gradientColor=default;" parent="1" vertex="1">
          <mxGeometry x="1006" y="1701.95" width="100" height="40" as="geometry" />
        </mxCell>
        <mxCell id="0sQT9fyUg3EOoXURnySZ-42" value="Average rate" style="ellipse;whiteSpace=wrap;html=1;align=center;dashed=1;" parent="1" vertex="1">
          <mxGeometry x="1100" y="1690" width="100" height="40" as="geometry" />
        </mxCell>
        <mxCell id="4AUw625GRqSKtKUmd0re-1" value="Rating" style="shape=ext;margin=3;double=1;whiteSpace=wrap;html=1;align=center;" vertex="1" parent="1">
          <mxGeometry x="910" y="1650" width="100" height="40" as="geometry" />
        </mxCell>
        <mxCell id="4AUw625GRqSKtKUmd0re-2" value="Provides" style="shape=rhombus;double=1;perimeter=rhombusPerimeter;whiteSpace=wrap;html=1;align=center;" vertex="1" parent="1">
          <mxGeometry x="640" y="1970" width="120" height="60" as="geometry" />
        </mxCell>
        <mxCell id="4AUw625GRqSKtKUmd0re-3" value="" style="shape=link;html=1;rounded=0;exitX=0.5;exitY=0;exitDx=0;exitDy=0;entryX=0.5;entryY=1;entryDx=0;entryDy=0;" edge="1" parent="1" source="4AUw625GRqSKtKUmd0re-2" target="-fTK9KnJdiPH2uhLEuWP-9">
          <mxGeometry relative="1" as="geometry">
            <mxPoint x="800" y="1960" as="sourcePoint" />
            <mxPoint x="960" y="1960" as="targetPoint" />
          </mxGeometry>
        </mxCell>
        <mxCell id="4AUw625GRqSKtKUmd0re-5" value="M" style="edgeLabel;html=1;align=center;verticalAlign=middle;resizable=0;points=[];" vertex="1" connectable="0" parent="4AUw625GRqSKtKUmd0re-3">
          <mxGeometry x="0.6396" y="-1" relative="1" as="geometry">
            <mxPoint as="offset" />
          </mxGeometry>
        </mxCell>
        <mxCell id="4AUw625GRqSKtKUmd0re-6" value="has" style="shape=rhombus;double=1;perimeter=rhombusPerimeter;whiteSpace=wrap;html=1;align=center;" vertex="1" parent="1">
          <mxGeometry x="1200" y="1392.69" width="120" height="60" as="geometry" />
        </mxCell>
        <mxCell id="4AUw625GRqSKtKUmd0re-8" value="writes" style="shape=rhombus;double=1;perimeter=rhombusPerimeter;whiteSpace=wrap;html=1;align=center;" vertex="1" parent="1">
          <mxGeometry x="1300" y="1336" width="120" height="60" as="geometry" />
        </mxCell>
        <mxCell id="4AUw625GRqSKtKUmd0re-10" value="" style="shape=link;html=1;rounded=0;entryX=0.5;entryY=1;entryDx=0;entryDy=0;exitX=0.5;exitY=0;exitDx=0;exitDy=0;" edge="1" parent="1" source="4AUw625GRqSKtKUmd0re-8" target="-fTK9KnJdiPH2uhLEuWP-16">
          <mxGeometry relative="1" as="geometry">
            <mxPoint x="1190" y="1380" as="sourcePoint" />
            <mxPoint x="1350" y="1380" as="targetPoint" />
          </mxGeometry>
        </mxCell>
        <mxCell id="4AUw625GRqSKtKUmd0re-12" value="N" style="edgeLabel;html=1;align=center;verticalAlign=middle;resizable=0;points=[];" vertex="1" connectable="0" parent="4AUw625GRqSKtKUmd0re-10">
          <mxGeometry x="0.3657" y="1" relative="1" as="geometry">
            <mxPoint as="offset" />
          </mxGeometry>
        </mxCell>
        <mxCell id="4AUw625GRqSKtKUmd0re-15" value="&lt;span style=&quot;border-bottom: 1px dotted&quot;&gt;Rating Id&lt;/span&gt;" style="ellipse;whiteSpace=wrap;html=1;align=center;" vertex="1" parent="1">
          <mxGeometry x="1070" y="1731.95" width="100" height="40" as="geometry" />
        </mxCell>
        <mxCell id="4AUw625GRqSKtKUmd0re-16" value="" style="shape=link;html=1;rounded=0;exitX=0.5;exitY=0;exitDx=0;exitDy=0;entryX=0.5;entryY=1;entryDx=0;entryDy=0;" edge="1" parent="1" source="-fTK9KnJdiPH2uhLEuWP-9" target="-fTK9KnJdiPH2uhLEuWP-24">
          <mxGeometry relative="1" as="geometry">
            <mxPoint x="730" y="1690" as="sourcePoint" />
            <mxPoint x="890" y="1690" as="targetPoint" />
          </mxGeometry>
        </mxCell>
        <mxCell id="4AUw625GRqSKtKUmd0re-19" value="1" style="edgeLabel;html=1;align=center;verticalAlign=middle;resizable=0;points=[];" vertex="1" connectable="0" parent="4AUw625GRqSKtKUmd0re-16">
          <mxGeometry x="0.4875" y="3" relative="1" as="geometry">
            <mxPoint as="offset" />
          </mxGeometry>
        </mxCell>
        <mxCell id="4AUw625GRqSKtKUmd0re-18" value="" style="shape=link;html=1;rounded=0;entryX=0.5;entryY=1;entryDx=0;entryDy=0;exitX=0.5;exitY=0;exitDx=0;exitDy=0;" edge="1" parent="1" source="-fTK9KnJdiPH2uhLEuWP-24" target="-fTK9KnJdiPH2uhLEuWP-1">
          <mxGeometry relative="1" as="geometry">
            <mxPoint x="820" y="1652" as="sourcePoint" />
            <mxPoint x="880" y="1550" as="targetPoint" />
          </mxGeometry>
        </mxCell>
        <mxCell id="4AUw625GRqSKtKUmd0re-20" value="N" style="edgeLabel;html=1;align=center;verticalAlign=middle;resizable=0;points=[];" vertex="1" connectable="0" parent="4AUw625GRqSKtKUmd0re-18">
          <mxGeometry x="-0.7166" relative="1" as="geometry">
            <mxPoint as="offset" />
          </mxGeometry>
        </mxCell>
        <mxCell id="4AUw625GRqSKtKUmd0re-21" value="" style="shape=link;html=1;rounded=0;exitX=0.5;exitY=0;exitDx=0;exitDy=0;entryX=0.5;entryY=1;entryDx=0;entryDy=0;" edge="1" parent="1" source="-fTK9KnJdiPH2uhLEuWP-3" target="-fTK9KnJdiPH2uhLEuWP-47">
          <mxGeometry relative="1" as="geometry">
            <mxPoint x="710" y="1980" as="sourcePoint" />
            <mxPoint x="681" y="1831.9499999999998" as="targetPoint" />
          </mxGeometry>
        </mxCell>
        <mxCell id="4AUw625GRqSKtKUmd0re-23" value="N" style="edgeLabel;html=1;align=center;verticalAlign=middle;resizable=0;points=[];" vertex="1" connectable="0" parent="4AUw625GRqSKtKUmd0re-21">
          <mxGeometry x="0.5625" y="-2" relative="1" as="geometry">
            <mxPoint as="offset" />
          </mxGeometry>
        </mxCell>
        <mxCell id="4AUw625GRqSKtKUmd0re-24" value="" style="shape=link;html=1;rounded=0;entryX=0;entryY=0.5;entryDx=0;entryDy=0;exitX=1;exitY=0.5;exitDx=0;exitDy=0;" edge="1" parent="1" source="-fTK9KnJdiPH2uhLEuWP-22" target="-fTK9KnJdiPH2uhLEuWP-1">
          <mxGeometry relative="1" as="geometry">
            <mxPoint x="740" y="1630" as="sourcePoint" />
            <mxPoint x="1020" y="1530" as="targetPoint" />
          </mxGeometry>
        </mxCell>
        <mxCell id="4AUw625GRqSKtKUmd0re-25" value="M" style="edgeLabel;html=1;align=center;verticalAlign=middle;resizable=0;points=[];" vertex="1" connectable="0" parent="4AUw625GRqSKtKUmd0re-24">
          <mxGeometry x="-0.7166" relative="1" as="geometry">
            <mxPoint x="3" as="offset" />
          </mxGeometry>
        </mxCell>
        <mxCell id="4AUw625GRqSKtKUmd0re-26" value="" style="shape=link;html=1;rounded=0;exitX=1;exitY=0.5;exitDx=0;exitDy=0;entryX=0.5;entryY=1;entryDx=0;entryDy=0;" edge="1" parent="1" source="-fTK9KnJdiPH2uhLEuWP-50" target="-fTK9KnJdiPH2uhLEuWP-18">
          <mxGeometry relative="1" as="geometry">
            <mxPoint x="1140" y="2110" as="sourcePoint" />
            <mxPoint x="1250" y="2040" as="targetPoint" />
          </mxGeometry>
        </mxCell>
        <mxCell id="4AUw625GRqSKtKUmd0re-28" value="M" style="edgeLabel;html=1;align=center;verticalAlign=middle;resizable=0;points=[];" vertex="1" connectable="0" parent="4AUw625GRqSKtKUmd0re-26">
          <mxGeometry x="-0.2634" y="-3" relative="1" as="geometry">
            <mxPoint as="offset" />
          </mxGeometry>
        </mxCell>
      </root>
    </mxGraphModel>
  </diagram>
</mxfile>
